<?xml version="1.0" encoding="utf-8"?>
<!-- Generator: Adobe Illustrator 26.3.1, SVG Export Plug-In . SVG Version: 6.00 Build 0)  -->
<svg version="1.1" id="Layer_1" xmlns="http://www.w3.org/2000/svg" xmlns:xlink="http://www.w3.org/1999/xlink" x="0px" y="0px"
	 viewBox="0 0 3000 3000" style="enable-background:new 0 0 3000 3000;" xml:space="preserve">
<style type="text/css">
	.st0{fill:#010101;}
</style>
<g>
	<path class="st0" d="M998.4,670.4c-316.6,58-354,258-355.4,341.4c-0.1,3.6,1.2,6.9,3.7,9.4c2.4,2.4,5.6,3.8,9.2,3.8h1632.4
		c3.5,0,6.8-1.4,9.2-3.8c2.4-2.5,3.8-5.8,3.7-9.3c-1.4-83.3-38.9-283.3-355.9-341.4c-10.9-1.7-270.5-45.4-270.5-217.1V171.8
		c0-7.1-5.7-12.9-12.8-12.9H1282c-7.1,0-12.8,5.8-12.8,12.9v281.5C1269.3,626.9,1010.9,668.5,998.4,670.4z"/>
	<path class="st0" d="M2865.7,2789.8c-36.7,0-66.5,29.8-66.5,66.5c0,36.7,29.8,66.5,66.5,66.5c36.7,0,66.5-29.8,66.5-66.5
		C2932.3,2819.7,2902.4,2789.8,2865.7,2789.8z"/>
	<path class="st0" d="M2647,2545.7c-36.7,0-66.5,29.8-66.5,66.5s29.8,66.6,66.5,66.6c36.7,0,66.5-29.9,66.5-66.6
		C2713.5,2575.5,2683.7,2545.7,2647,2545.7z"/>
	<path class="st0" d="M2334.6,2612.2c0-36.7-29.8-66.5-66.5-66.5c-36.7,0-66.5,29.8-66.5,66.5s29.8,66.6,66.5,66.6
		C2304.8,2678.8,2334.6,2648.9,2334.6,2612.2z"/>
	<path class="st0" d="M2496.9,2282.3c-36.7,0-66.5,29.8-66.5,66.5s29.8,66.5,66.5,66.5s66.5-29.8,66.5-66.5
		S2533.6,2282.3,2496.9,2282.3z"/>
	<path class="st0" d="M2211.7,2348.8c0-36.7-29.8-66.5-66.5-66.5c-36.7,0-66.5,29.8-66.5,66.5s29.8,66.5,66.5,66.5
		C2181.8,2415.3,2211.7,2385.5,2211.7,2348.8z"/>
	<path class="st0" d="M2393.3,2099.4c0-36.7-29.8-66.5-66.5-66.5c-36.7,0-66.5,29.8-66.5,66.5c0,36.7,29.8,66.5,66.5,66.5
		C2363.4,2165.9,2393.3,2136.1,2393.3,2099.4z"/>
	<path class="st0" d="M2039.4,2032.9c-36.7,0-66.5,29.8-66.5,66.5c0,36.7,29.8,66.5,66.5,66.5c36.7,0,66.5-29.8,66.5-66.5
		C2105.9,2062.7,2076,2032.9,2039.4,2032.9z"/>
	<path class="st0" d="M1867.1,2348.8c0-36.7-29.8-66.5-66.5-66.5c-36.7,0-66.5,29.8-66.5,66.5s29.8,66.5,66.5,66.5
		C1837.3,2415.3,1867.1,2385.5,1867.1,2348.8z"/>
	<path class="st0" d="M2249.5,1940.1c36.7,0,66.5-29.9,66.5-66.6c0-36.7-29.8-66.5-66.5-66.5c-36.7,0-66.5,29.8-66.5,66.5
		C2183,1910.2,2212.9,1940.1,2249.5,1940.1z"/>
	<path class="st0" d="M1995,1940.1c36.7,0,66.5-29.9,66.5-66.6c0-36.7-29.8-66.5-66.5-66.5c-36.7,0-66.5,29.8-66.5,66.5
		C1928.5,1910.2,1958.4,1940.1,1995,1940.1z"/>
	<path class="st0" d="M1757.7,2165.9c36.7,0,66.5-29.8,66.5-66.5c0-36.7-29.8-66.5-66.5-66.5c-36.7,0-66.5,29.8-66.5,66.5
		C1691.2,2136.1,1721,2165.9,1757.7,2165.9z"/>
	<path class="st0" d="M2185.2,1735.2c36.7,0,66.5-29.8,66.5-66.5s-29.8-66.5-66.5-66.5c-36.7,0-66.5,29.8-66.5,66.5
		S2148.5,1735.2,2185.2,1735.2z"/>
	<path class="st0" d="M1949.3,1735.2c36.7,0,66.5-29.8,66.5-66.5s-29.8-66.5-66.5-66.5c-36.7,0-66.5,29.8-66.5,66.5
		S1912.6,1735.2,1949.3,1735.2z"/>
	<path class="st0" d="M1723.4,1940.1c36.7,0,66.5-29.9,66.5-66.6c0-36.7-29.8-66.5-66.5-66.5c-36.7,0-66.5,29.8-66.5,66.5
		C1656.9,1910.2,1686.7,1940.1,1723.4,1940.1z"/>
	<path class="st0" d="M2130.9,1527.1c36.7,0,66.5-29.8,66.5-66.5c0-36.7-29.8-66.5-66.5-66.5c-36.7,0-66.5,29.8-66.5,66.5
		C2064.4,1497.3,2094.2,1527.1,2130.9,1527.1z"/>
	<path class="st0" d="M2096.5,1315.2c36.7,0,66.5-29.8,66.5-66.5c0-36.7-29.8-66.5-66.5-66.5c-36.7,0-66.5,29.8-66.5,66.5
		S2059.9,1315.2,2096.5,1315.2z"/>
	<path class="st0" d="M1893.5,1315.2c36.7,0,66.5-29.8,66.5-66.5c0-36.7-29.8-66.5-66.5-66.5c-36.7,0-66.5,29.8-66.5,66.5
		S1856.8,1315.2,1893.5,1315.2z"/>
	<path class="st0" d="M1687.7,1315.2c36.7,0,66.5-29.8,66.5-66.5c0-36.7-29.8-66.5-66.5-66.5c-36.7,0-66.5,29.8-66.5,66.5
		S1651,1315.2,1687.7,1315.2z"/>
	<path class="st0" d="M1477.5,1182.2c-36.7,0-66.5,29.8-66.5,66.5c0,36.7,29.8,66.5,66.5,66.5c36.7,0,66.5-29.8,66.5-66.5
		C1544,1212,1514.2,1182.2,1477.5,1182.2z"/>
	<path class="st0" d="M1265.9,1182.2c-36.7,0-66.5,29.8-66.5,66.5c0,36.7,29.8,66.5,66.5,66.5c36.7,0,66.5-29.8,66.5-66.5
		C1332.4,1212,1302.5,1182.2,1265.9,1182.2z"/>
	<path class="st0" d="M1060,1182.2c-36.7,0-66.5,29.8-66.5,66.5c0,36.7,29.8,66.5,66.5,66.5c36.7,0,66.5-29.8,66.5-66.5
		C1126.5,1212,1096.7,1182.2,1060,1182.2z"/>
	<path class="st0" d="M1694.8,1527.1c36.7,0,66.5-29.8,66.5-66.5c0-36.7-29.8-66.5-66.5-66.5c-36.7,0-66.5,29.8-66.5,66.5
		C1628.3,1497.3,1658.1,1527.1,1694.8,1527.1z"/>
	<path class="st0" d="M1541.2,1460.7c0-36.7-29.8-66.5-66.5-66.5s-66.5,29.8-66.5,66.5c0,36.7,29.8,66.5,66.5,66.5
		C1511.3,1527.1,1541.2,1497.3,1541.2,1460.7z"/>
	<path class="st0" d="M1251.6,1394.1c-36.7,0-66.5,29.8-66.5,66.5c0,36.7,29.8,66.5,66.5,66.5c36.7,0,66.5-29.8,66.5-66.5
		C1318.1,1424,1288.3,1394.1,1251.6,1394.1z"/>
	<path class="st0" d="M1468.9,1735.2c36.7,0,66.5-29.8,66.5-66.5s-29.8-66.5-66.5-66.5c-36.7,0-66.5,29.8-66.5,66.5
		S1432.2,1735.2,1468.9,1735.2z"/>
	<path class="st0" d="M1295.2,1668.7c0-36.7-29.8-66.5-66.5-66.5c-36.7,0-66.5,29.8-66.5,66.5c0,36.7,29.8,66.5,66.5,66.5
		C1265.4,1735.2,1295.2,1705.4,1295.2,1668.7z"/>
	<path class="st0" d="M978.5,1602.1c-36.7,0-66.5,29.8-66.5,66.5c0,36.7,29.8,66.5,66.5,66.5c36.7,0,66.5-29.8,66.5-66.5
		C1045,1632,1015.2,1602.1,978.5,1602.1z"/>
	<path class="st0" d="M1021.4,1394.1c-36.7,0-66.5,29.8-66.5,66.5c0,36.7,29.8,66.5,66.5,66.5c36.7,0,66.5-29.8,66.5-66.5
		C1087.9,1424,1058,1394.1,1021.4,1394.1z"/>
	<path class="st0" d="M797.6,1394.1c-36.7,0-66.5,29.8-66.5,66.5c0,36.7,29.8,66.5,66.5,66.5c36.7,0,66.5-29.8,66.5-66.5
		C864.1,1424,834.3,1394.1,797.6,1394.1z"/>
	<path class="st0" d="M919.2,1248.8c0-36.7-29.8-66.5-66.5-66.5c-36.7,0-66.5,29.8-66.5,66.5c0,36.7,29.8,66.5,66.5,66.5
		C889.4,1315.2,919.2,1285.4,919.2,1248.8z"/>
	<path class="st0" d="M736.9,1602.1c-36.7,0-66.5,29.8-66.5,66.5c0,36.7,29.8,66.5,66.5,66.5s66.5-29.8,66.5-66.5
		C803.4,1632,773.6,1602.1,736.9,1602.1z"/>
	<path class="st0" d="M1907.8,1527.1c36.7,0,66.5-29.8,66.5-66.5c0-36.7-29.8-66.5-66.5-66.5c-36.7,0-66.5,29.8-66.5,66.5
		C1841.3,1497.3,1871.1,1527.1,1907.8,1527.1z"/>
	<path class="st0" d="M1704.8,1735.2c36.7,0,66.5-29.8,66.5-66.5s-29.8-66.5-66.5-66.5c-36.7,0-66.5,29.8-66.5,66.5
		S1668.1,1735.2,1704.8,1735.2z"/>
	<path class="st0" d="M1471.8,1940.1c36.7,0,66.5-29.9,66.5-66.6c0-36.7-29.8-66.5-66.5-66.5c-36.7,0-66.5,29.8-66.5,66.5
		C1405.2,1910.2,1435.1,1940.1,1471.8,1940.1z"/>
	<path class="st0" d="M1551.1,2348.8c0-36.7-29.8-66.5-66.5-66.5c-36.7,0-66.5,29.8-66.5,66.5s29.8,66.5,66.5,66.5
		C1521.3,2415.3,1551.1,2385.5,1551.1,2348.8z"/>
	<path class="st0" d="M1226.6,2348.8c0-36.7-29.8-66.5-66.5-66.5c-36.7,0-66.5,29.8-66.5,66.5s29.8,66.5,66.5,66.5
		C1196.8,2415.3,1226.6,2385.5,1226.6,2348.8z"/>
	<path class="st0" d="M1478.9,2165.9c36.7,0,66.5-29.8,66.5-66.5c0-36.7-29.8-66.5-66.5-66.5c-36.7,0-66.5,29.8-66.5,66.5
		C1412.4,2136.1,1442.2,2165.9,1478.9,2165.9z"/>
	<path class="st0" d="M1256.6,2099.4c0-36.7-29.8-66.5-66.5-66.5c-36.7,0-66.5,29.8-66.5,66.5c0,36.7,29.8,66.5,66.5,66.5
		C1226.8,2165.9,1256.6,2136.1,1256.6,2099.4z"/>
	<path class="st0" d="M804.1,2282.3c-36.7,0-66.5,29.8-66.5,66.5s29.8,66.5,66.5,66.5c36.7,0,66.5-29.8,66.5-66.5
		S840.7,2282.3,804.1,2282.3z"/>
	<path class="st0" d="M744.7,2612.2c0-36.7-29.8-66.5-66.5-66.5c-36.7,0-66.5,29.8-66.5,66.5s29.8,66.6,66.5,66.6
		C714.9,2678.8,744.7,2648.9,744.7,2612.2z"/>
	<path class="st0" d="M305.1,2545.7c-36.7,0-66.5,29.8-66.5,66.5s29.8,66.6,66.5,66.6s66.5-29.9,66.5-66.6
		C371.6,2575.5,341.8,2545.7,305.1,2545.7z"/>
	<path class="st0" d="M134.3,2789.8c-36.7,0-66.5,29.8-66.5,66.5c0,36.7,29.8,66.5,66.5,66.5c36.7,0,66.5-29.8,66.5-66.5
		C200.7,2819.7,170.9,2789.8,134.3,2789.8z"/>
	<path class="st0" d="M459.5,2282.3c-36.7,0-66.5,29.8-66.5,66.5s29.8,66.5,66.5,66.5c36.7,0,66.5-29.8,66.5-66.5
		S496.2,2282.3,459.5,2282.3z"/>
	<path class="st0" d="M949.3,2099.4c0-36.7-29.8-66.5-66.5-66.5s-66.5,29.8-66.5,66.5c0,36.7,29.8,66.5,66.5,66.5
		C919.4,2165.9,949.3,2136.1,949.3,2099.4z"/>
	<path class="st0" d="M585.3,2032.9c-36.7,0-66.5,29.8-66.5,66.5c0,36.7,29.8,66.5,66.5,66.5c36.7,0,66.5-29.8,66.5-66.5
		C651.9,2062.7,622,2032.9,585.3,2032.9z"/>
	<path class="st0" d="M1203,1807c-36.7,0-66.5,29.8-66.5,66.5c0,36.7,29.8,66.6,66.5,66.6c36.7,0,66.5-29.9,66.5-66.6
		C1269.5,1836.8,1239.6,1807,1203,1807z"/>
	<path class="st0" d="M935.6,1807c-36.7,0-66.5,29.8-66.5,66.5c0,36.7,29.8,66.6,66.5,66.6c36.7,0,66.5-29.9,66.5-66.6
		C1002.1,1836.8,972.3,1807,935.6,1807z"/>
	<path class="st0" d="M737.6,1873.5c0-36.7-29.8-66.5-66.5-66.5c-36.7,0-66.5,29.8-66.5,66.5c0,36.7,29.8,66.6,66.5,66.6
		C707.8,1940.1,737.6,1910.2,737.6,1873.5z"/>
	<path class="st0" d="M655.8,1082.6h1632.4c19.1,0,37-7.5,50.2-21c13.4-13.6,20.5-31.6,20.2-50.7c-1.6-97.5-44.1-331.4-404.1-397.3
		c-9.1-1.5-222.2-39.2-222.2-160.3V171.8c0-38.8-31.6-70.4-70.4-70.4H1282c-38.8,0-70.4,31.6-70.4,70.4v281.5
		c0,122.5-220.7,160-223,160.4c-359.2,65.8-401.7,299.6-403.3,397.2c-0.3,19.1,6.9,37.1,20.2,50.7
		C618.9,1075.1,636.7,1082.6,655.8,1082.6z M1269.3,453.3V171.8c0-7.1,5.7-12.9,12.8-12.9h379.9c7.1,0,12.8,5.8,12.8,12.9v281.5
		c0,171.7,259.6,215.4,270.5,217.1c317,58.1,354.5,258.2,355.9,341.4c0.1,3.5-1.2,6.8-3.7,9.3c-2.4,2.5-5.7,3.8-9.2,3.8H655.8
		c-3.5,0-6.8-1.4-9.2-3.8c-2.5-2.5-3.8-5.9-3.7-9.4c1.4-83.3,38.8-283.3,355.4-341.4C1010.9,668.5,1269.3,626.9,1269.3,453.3z"/>
</g>
</svg>
