<?xml version="1.0" encoding="utf-8"?>
<!-- Generator: Adobe Illustrator 26.3.1, SVG Export Plug-In . SVG Version: 6.00 Build 0)  -->
<svg version="1.1" id="Layer_1" xmlns="http://www.w3.org/2000/svg" xmlns:xlink="http://www.w3.org/1999/xlink" x="0px" y="0px"
	 viewBox="0 0 3000 3000" style="enable-background:new 0 0 3000 3000;" xml:space="preserve">
<style type="text/css">
	.st0{fill:#010101;}
</style>
<g>
	<polygon class="st0" points="1366.7,1429.8 1366.7,1570.2 1488.3,1640.4 1609.8,1570.2 1609.8,1429.8 1488.3,1359.6 	"/>
	<path class="st0" d="M2918.8,1461.6h-674.2l13.6-13.6l458.6-458.6c15-14.9,15-39.3,0-54.2c-14.9-15.1-39.4-15-54.2,0l-491.3,491.3
		c-7.3,7.2-11.3,16.9-11.3,27.1v8h-480v-72.4l-53.8-31.1l237.1-410.7l6.9,4c8.9,5.1,19.1,6.5,29.1,3.9l671.2-179.8
		c20.5-5.5,32.6-26.5,27.1-47c-5.4-20.4-26.6-32.7-46.9-27.1l-645,172.9l9.6-16.7l327.4-567.2c5.1-8.9,6.5-19.2,3.9-29.1
		c-2.7-9.9-9-18.2-17.9-23.2c-8.9-5.1-19.3-6.5-29-3.9c-9.9,2.6-18.2,9-23.3,17.9L1839.1,836l-172.8-645.1
		c-2.6-9.9-9-18.2-17.8-23.2c-8.9-5.1-19.1-6.6-29.1-3.8c-9.9,2.6-18.2,9-23.3,17.8c-5.1,8.9-6.5,19.2-3.8,29.1L1772.1,882
		c2.6,9.9,9,18.1,17.8,23.2l6.9,4l-237.1,410.7l-71.5-41.3l-53.9,31.1l-231.2-400.5l6.9-4c8.9-5.1,15.2-13.3,18-23.3l179.8-671.1
		c2.7-9.9,1.3-20.3-3.8-29.1c-5.1-8.8-13.4-15.2-23.3-17.8c-10-2.8-20.3-1.3-29.1,3.8c-8.9,5.1-15.2,13.4-17.8,23.2L1160.8,836
		L823.7,252.1c-5.1-8.9-13.4-15.3-23.3-17.9c-10-2.6-20.2-1.2-29,3.9c-18.3,10.5-24.6,34-14,52.3l337.1,583.9l-645-172.9
		c-20.6-5.7-41.5,6.7-46.9,27.1c-5.5,20.4,6.7,41.5,27.1,47l671.2,179.8c9.9,2.6,20.3,1.2,29.1-3.9l6.9-4L1368,1348l-71.4,41.3v72.4
		H839.9v-8c0-10.2-4-19.9-11.3-27.1L337.3,935.2c-14.8-15-39.3-15.1-54.2,0c-15,14.9-15,39.3,0,54.2l472.2,472.3H81.1
		c-21.1,0-38.3,17.2-38.3,38.3c0,21.1,17.2,38.3,38.3,38.3h674.2l-13.6,13.6l-458.6,458.6c-15,14.9-15,39.2,0,54.2
		c14.9,14.9,39.4,14.9,54.2,0l491.3-491.4c7.3-7.2,11.3-16.8,11.3-27.1v-8h456.6v72.4l71.4,41.3l-231.2,400.5l-6.9-4
		c-8.8-5.1-19.2-6.5-29.1-3.8l-671.2,179.8c-20.4,5.4-32.5,26.5-27.1,46.9c2.6,9.9,9,18.2,17.8,23.3c8.9,5.2,19.2,6.4,29.1,3.8
		l645-172.9l-9.6,16.7l-327.4,567.2c-10.6,18.3-4.3,41.8,14,52.3c18.4,10.7,41.8,4.2,52.4-14l337.1-583.9l172.9,645.1
		c2.6,9.9,9,18.2,17.8,23.3c8.9,5.2,19.1,6.6,29.1,3.8c9.9-2.6,18.2-9,23.3-17.8c5.1-8.9,6.5-19.2,3.8-29.1L1228,2118
		c-2.7-9.9-9.1-18.2-17.9-23.3l-6.9-4l231.2-400.5l53.9,31.1l71.5-41.3l237.1,410.6l-6.9,4c-8.9,5.1-15.2,13.4-17.8,23.3
		l-179.9,671.2c-2.7,9.9-1.3,20.2,3.8,29.1c5.1,8.9,13.4,15.2,23.3,17.8c10,2.6,20.3,1.4,29.1-3.8c8.9-5.1,15.2-13.4,17.8-23.3
		l172.8-645.1l337.1,583.9c10.6,18.3,34,24.7,52.4,14c8.9-5.1,15.2-13.3,17.9-23.2c2.6-9.9,1.2-20.3-3.9-29.1l-337.1-583.9
		l645,172.9c10,2.8,20.3,1.4,29.1-3.8c8.9-5.1,15.2-13.4,17.8-23.3c2.7-9.9,1.4-20.2-3.7-29c-5.2-8.9-13.4-15.3-23.3-17.9
		l-671.2-179.8c-10-2.8-20.3-1.3-29.1,3.8l-6.9,4l-237.1-410.6l53.8-31.1v-72.4h480v8c0,10.2,4,19.8,11.3,27.1l491.3,491.4
		c14.8,14.9,39.3,15,54.2,0c15-14.9,15-39.3,0-54.2l-472.2-472.3h674.2c21.1,0,38.3-17.2,38.3-38.3
		C2957.2,1478.9,2940,1461.6,2918.8,1461.6z M1609.8,1570.2l-121.5,70.2l-121.5-70.2v-140.4l121.5-70.2l121.5,70.2V1570.2z"/>
</g>
</svg>
