<?xml version="1.0" encoding="utf-8"?>
<!-- Generator: Adobe Illustrator 26.3.1, SVG Export Plug-In . SVG Version: 6.00 Build 0)  -->
<svg version="1.1" id="Layer_1" xmlns="http://www.w3.org/2000/svg" xmlns:xlink="http://www.w3.org/1999/xlink" x="0px" y="0px"
	 viewBox="0 0 3000 3000" style="enable-background:new 0 0 3000 3000;" xml:space="preserve">
<style type="text/css">
	.st0{fill:#010101;}
</style>
<g>
	<path class="st0" d="M526.2,1723.6c-20.3,85.9,11.7,190.3,87.8,286.4c76.6,96.8,313.2,321.8,854.9,321.8h62.4
		c541.7,0,778.4-225,854.9-321.8c76-96.1,108-200.5,87.7-286.4c-51.6-218.6-222.1-275.9-229.3-278.2l-30.3-9.6l5.8-31.3
		c58.4-307.4-216.2-428.9-219-430.1l-26.7-11.6l5.7-28.4c60.3-301.2-181.5-381.3-191.9-384.6l-33.9-10.7l10.4-34.1
		c32.3-105.5,27.1-191.7-15.6-256.5c-70.3-106.8-220.2-124.5-221.8-124.7c-7-1.2-15.2-1.8-24.8-1.8c-12.7,0-24.3,1.1-29.2,1.7
		c-1.7,0.2-152.4,18-222.7,125c-42.4,64.7-47.6,150.9-15.3,256.2l10.5,34l-34.1,10.8c-10.3,3.3-252.1,83.4-191.9,384.6l5.7,28.3
		l-26.5,11.6c-11.4,4.9-277,125.4-219.1,430.2l6,31.3l-30.5,9.7C748.3,1447.7,578,1503.6,526.2,1723.6z"/>
	<path class="st0" d="M2295.4,1388.6c38.3-282.4-168.3-426.1-240.1-467c41.9-271.4-130.6-387.7-213.2-427.1
		c28.4-113,17.4-209.1-33-285.6c-89.9-136.5-270.5-156.2-271.9-156.3c-32.4-5.6-72.1-0.3-72.3-0.3c-7.5,0.8-184.9,21.1-274.1,156.6
		c-50.4,76.5-61.5,172.6-33,285.6c-82.6,39.4-255.1,155.8-213.1,427.1c-71.9,40.8-278.5,184.5-240.1,467
		c-62.2,28.7-200.1,113.8-248.4,318.4c-25.3,107.4,11.6,234.1,101.3,347.6c175.6,221.8,507.7,349,911.2,349h26.5v553.6h71.8v-554.3
		c387.1-7.4,705.8-134.2,875.3-348.4c89.7-113.4,126.7-240,101.3-347.5C2495.4,1502.5,2357.6,1417.3,2295.4,1388.6z M780,1404.4
		c-57.9-304.8,207.7-425.2,219.1-430.2l26.5-11.6l-5.7-28.3c-60.2-301.2,181.5-381.3,191.9-384.6l34.1-10.8l-10.5-34
		c-32.3-105.2-27.1-191.4,15.3-256.2c70.3-107,221.1-124.8,222.7-125c4.8-0.6,16.4-1.7,29.2-1.7c9.6,0,17.8,0.6,24.8,1.8
		c1.5,0.2,151.5,17.9,221.8,124.7c42.7,64.7,47.9,151,15.6,256.5l-10.4,34.1l33.9,10.7c10.3,3.3,252.1,83.4,191.9,384.6l-5.7,28.4
		l26.7,11.6c2.8,1.2,277.3,122.7,219,430.1l-5.8,31.3l30.3,9.6c7.2,2.3,177.7,59.6,229.3,278.2c20.3,85.9-11.7,190.3-87.7,286.4
		c-76.6,96.8-313.2,321.8-854.9,321.8h-62.4c-541.7,0-778.3-225-854.9-321.8c-76-96.1-108-200.4-87.8-286.4
		c51.9-219.9,222.1-275.9,229.4-278.2l30.5-9.7L780,1404.4z"/>
</g>
</svg>
