<?xml version="1.0" encoding="utf-8"?>
<!-- Generator: Adobe Illustrator 26.3.1, SVG Export Plug-In . SVG Version: 6.00 Build 0)  -->
<svg version="1.1" id="Layer_1" xmlns="http://www.w3.org/2000/svg" xmlns:xlink="http://www.w3.org/1999/xlink" x="0px" y="0px"
	 viewBox="0 0 3000 3000" style="enable-background:new 0 0 3000 3000;" xml:space="preserve">
<style type="text/css">
	.st0{fill:#010101;}
</style>
<g>
	<path class="st0" d="M1516.8,562.4l-11.1-27.5l-11.1,27.5c-62.2,155-186.8,279.5-341.8,341.7l-27.5,11.1l27.5,11.1
		c155,62.2,279.6,186.9,341.8,341.9l11.1,27.6l11.1-27.6c62.1-155,186.8-279.7,341.8-341.9l27.5-11.1l-27.5-11.1
		C1703.6,842,1579,717.4,1516.8,562.4z"/>
	<path class="st0" d="M2342.7,1612.6l-11.1-27.5l-11.1,27.5c-62.2,155-186.8,279.5-341.8,341.7l-27.6,11.1l27.6,11.1
		c155,62.2,279.6,186.8,341.8,341.9l11.1,27.6l11.1-27.6c62.2-155.1,186.8-279.7,341.8-341.9l27.6-11.1l-27.6-11.1
		C2529.5,1892.2,2404.9,1767.6,2342.7,1612.6z"/>
	<path class="st0" d="M679.4,1597.7l-11.1-27.5l-11.1,27.5c-62.2,155-186.8,279.5-341.8,341.7l-27.6,11.1l27.6,11.1
		c155.1,62.2,279.7,186.9,341.8,341.9l11.1,27.6l11.1-27.6c62.1-155.1,186.8-279.7,341.8-341.9l27.6-11.1l-27.6-11.1
		C866.2,1877.2,741.6,1752.7,679.4,1597.7z"/>
	<path class="st0" d="M2119.1,915.2c0-18.1-14.7-32.8-32.8-32.8c-302.1,0-547.8-245.6-547.8-547.6c0-18.1-14.7-32.8-32.8-32.8
		c-18,0-32.7,14.7-32.7,32.8c0,302-245.7,547.6-547.8,547.6c-18.1,0-32.8,14.7-32.8,32.8c0,18.1,14.7,32.8,32.8,32.8
		c302.1,0,547.8,245.8,547.8,547.9c0,18.1,14.7,32.8,32.7,32.8c18.1,0,32.8-14.7,32.8-32.8c0-302.1,245.7-547.9,547.8-547.9
		C2104.4,948,2119.1,933.3,2119.1,915.2z M1858.6,926.3c-155.1,62.2-279.7,186.9-341.8,341.9l-11.1,27.6l-11.1-27.6
		c-62.2-155.1-186.8-279.7-341.8-341.9l-27.5-11.1l27.5-11.1c155-62.1,279.6-186.7,341.8-341.7l11.1-27.5l11.1,27.5
		c62.2,155,186.8,279.5,341.8,341.7l27.5,11.1L1858.6,926.3z"/>
	<path class="st0" d="M2912.2,1932.7c-302.1,0-547.8-245.7-547.8-547.7c0-18-14.7-32.7-32.8-32.7s-32.8,14.7-32.8,32.7
		c0,302-245.7,547.7-547.8,547.7c-18.1,0-32.8,14.7-32.8,32.7c0,18.1,14.7,32.8,32.8,32.8c302.1,0,547.8,245.8,547.8,548
		c0,18.1,14.7,32.8,32.8,32.8s32.8-14.7,32.8-32.8c0-302.1,245.7-548,547.8-548c18,0,32.7-14.7,32.7-32.8
		C2944.9,1947.4,2930.2,1932.7,2912.2,1932.7z M2684.5,1976.5c-155,62.2-279.6,186.8-341.8,341.9l-11.1,27.6l-11.1-27.6
		c-62.2-155.1-186.8-279.7-341.8-341.9l-27.6-11.1l27.6-11.1c155.1-62.2,279.6-186.8,341.8-341.7l11.1-27.5l11.1,27.5
		c62.2,155,186.8,279.5,341.8,341.7l27.6,11.1L2684.5,1976.5z"/>
	<path class="st0" d="M1248.9,1917.6c-302.1,0-547.8-245.7-547.8-547.6c0-18.1-14.7-32.8-32.8-32.8c-18.1,0-32.8,14.7-32.8,32.8
		c0,302-245.7,547.6-547.8,547.6c-18,0-32.7,14.7-32.7,32.8c0,18.1,14.7,32.8,32.7,32.8c302.1,0,547.8,245.8,547.8,548
		c0,18.1,14.7,32.8,32.8,32.8c18.1,0,32.8-14.7,32.8-32.8c0-302.1,245.7-548,547.8-548c18.1,0,32.8-14.7,32.8-32.8
		C1281.7,1932.3,1267,1917.6,1248.9,1917.6z M1021.2,1961.5c-155.1,62.2-279.7,186.9-341.8,341.9l-11.1,27.6l-11.1-27.6
		c-62.1-155.1-186.8-279.7-341.8-341.9l-27.6-11.1l27.6-11.1c155-62.1,279.6-186.7,341.8-341.7l11.1-27.5l11.1,27.5
		c62.2,155,186.8,279.5,341.8,341.7l27.6,11.1L1021.2,1961.5z"/>
</g>
</svg>
