<?xml version="1.0" encoding="utf-8"?>
<!-- Generator: Adobe Illustrator 26.3.1, SVG Export Plug-In . SVG Version: 6.00 Build 0)  -->
<svg version="1.1" id="Layer_1" xmlns="http://www.w3.org/2000/svg" xmlns:xlink="http://www.w3.org/1999/xlink" x="0px" y="0px"
	 viewBox="0 0 3000 3000" style="enable-background:new 0 0 3000 3000;" xml:space="preserve">
<style type="text/css">
	.st0{fill:#010101;}
</style>
<g>
	<polygon class="st0" points="1460.1,1801.5 1129.1,2798.1 1870.9,2798.1 1539.9,1801.5 	"/>
	<path class="st0" d="M1500,1185c46,0,83.4-37.4,83.4-83.4c0-46-37.4-83.4-83.4-83.4c-46,0-83.3,37.4-83.3,83.4
		C1416.6,1147.6,1454,1185,1500,1185z"/>
	<path class="st0" d="M1891.9,769l-65.1,65.1c61.6,75,95.3,169.5,95.3,267.6c0,98.1-33.7,192.5-95.3,267.5l65.2,65.1
		C2053,1244.6,2053,958.8,1891.9,769z"/>
	<path class="st0" d="M1108.1,1434.4l65.2-65.1c-61.6-75.1-95.3-169.5-95.3-267.5c0-98.1,33.7-192.6,95.3-267.6l-65.1-65.1
		C947,958.8,947,1244.6,1108.1,1434.4z"/>
	<path class="st0" d="M2223.5,437.3l-65,65c309,339.1,309,859.6,0,1198.8l65,64.9c166.7-181.3,258.2-416.5,258.2-664.3
		C2481.7,853.9,2390.2,618.6,2223.5,437.3z"/>
	<path class="st0" d="M518.3,1101.7c0,247.8,91.6,483,258.2,664.3l65-64.9c-309-339.2-309-859.7,0-1198.8l-65-65
		C609.8,618.6,518.3,853.9,518.3,1101.7z"/>
	<path class="st0" d="M2554.8,106.1l-64.9,65c494.1,524.9,494.1,1336.3,0,1861.2l64.9,64.9C3085.4,1535.8,3085.4,667.6,2554.8,106.1
		z"/>
	<path class="st0" d="M510.1,171.1l-64.9-65c-530.6,561.5-530.6,1429.7,0,1991.2l64.9-64.9C16,1507.4,16.1,696,510.1,171.1z"/>
	<path class="st0" d="M1405.6,1726l-381.2,1147.7h951.1L1594.4,1726L1405.6,1726L1405.6,1726z M1129.1,2798.1l331-996.6h79.7
		l331,996.6H1129.1z"/>
</g>
</svg>
