<?xml version="1.0" encoding="utf-8"?>
<!-- Generator: Adobe Illustrator 26.0.1, SVG Export Plug-In . SVG Version: 6.00 Build 0)  -->
<svg version="1.1" id="Layer_1" xmlns="http://www.w3.org/2000/svg" xmlns:xlink="http://www.w3.org/1999/xlink" x="0px" y="0px"
	 viewBox="0 0 3000 3000" style="enable-background:new 0 0 3000 3000;" xml:space="preserve">
<style type="text/css">
	.st0{fill:#241F20;}
</style>
<g>
	<g>
		<g>
			<path class="st0" d="M1869.36,1301.98c-1.53-2.3-2.68-3.83-2.68-3.83l-119-156.12l-216.58-285.46l-8.52-10.9
				c-0.7-0.9-1.35-1.83-1.95-2.79l0,0c-0.67-1.08-1.4-2.14-2.2-3.13c-22.08-27.23-41.38-7.17-46.64-0.4l-1.91,2.68l-337.12,461.09
				c-3.44,4.97-14.54,22.19-10.33,35.97c0,0.38,0.38,0.77,0.38,1.15c0.69,1.85,1.52,3.55,2.33,5.12c1.64,3.2,3.75,6.14,6.38,8.6
				c5.19,4.86,15.02,11.67,33.01,17.66c0,0,0,0,0.38,0l291.2,100.25l3.83,1.15c0,0,24.84,10.01,57.36,4.12
				c1.04-0.19,2.06-0.51,3.07-0.81c1.56-0.47,3.28-0.83,5-1.4c3.06-0.77,6.12-1.53,9.18-2.68c0.77,0,1.53-0.38,1.91-0.38
				c1.92-0.77,3.06-1.15,4.97-1.91l303.06-115.18l6.89-2.3c1.15-0.77,2.68-1.15,4.21-1.53c1.53-0.76,3.44-1.15,4.97-1.91
				C1890.02,1336.8,1875.86,1311.55,1869.36,1301.98z"/>
		</g>
		<path class="st0" d="M1974.76,1927.38l-326.61-135.65h0l-42.26-17.55l368.86-153.2c2.14-0.89,3.8-2.56,4.69-4.7
			c0.88-2.14,0.88-4.49-0.01-6.63l-24.52-59.02c-1.83-4.41-6.91-6.51-11.33-4.68L1500,1730.2l-443.6-184.24
			c-1.07-0.44-2.2-0.67-3.32-0.67c-1.12,0-2.24,0.22-3.31,0.66c-2.14,0.88-3.81,2.55-4.7,4.69l-24.51,59.02
			c-0.89,2.14-0.89,4.49-0.01,6.63c0.88,2.14,2.55,3.81,4.69,4.7l368.86,153.2l-368.86,153.2c-4.41,1.83-6.51,6.92-4.68,11.33
			l24.51,59.02c1.83,4.41,6.92,6.51,11.33,4.68l443.6-184.24l18.42,7.65l425.18,176.59c4.41,1.83,9.49-0.27,11.33-4.68l24.52-59.02
			c0.89-2.14,0.89-4.49,0.01-6.63C1978.57,1929.94,1976.9,1928.27,1974.76,1927.38z"/>
	</g>
</g>
</svg>
