<?xml version="1.0" encoding="utf-8"?>
<!-- Generator: Adobe Illustrator 26.3.1, SVG Export Plug-In . SVG Version: 6.00 Build 0)  -->
<svg version="1.1" id="Layer_1" xmlns="http://www.w3.org/2000/svg" xmlns:xlink="http://www.w3.org/1999/xlink" x="0px" y="0px"
	 viewBox="0 0 3000 3000" style="enable-background:new 0 0 3000 3000;" xml:space="preserve">
<style type="text/css">
	.st0{fill:#231F20;}
</style>
<g id="_x30_I1FQb_00000171693128681191191010000010217897918373577379_">
	<g>
		<path class="st0" d="M1521.1,2973.1C761.4,2983,97,2409.9,32.4,1621.1C-36,786.7,588,92.3,1384.5,31.2
			c831.1-63.7,1523.8,559.5,1584.1,1357.4C3031.2,2218.7,2389,2955.8,1521.1,2973.1z M1551.3,1554c0,179.5,0,357,0,534.5
			c3.3,0.7,5.1,1.3,7,1.3c193.3,5.3,384.1,29.2,571,80c13.9,3.8,17.7-1.1,21.3-13.3c49.7-164.9,76.1-333.8,87.1-505.2
			c2.1-31.9,0.3-64.1,0.3-97.3C2010.5,1554,1781.6,1554,1551.3,1554z M2240.8,1447.8c0.3-5.6,0.8-10,0.7-14.3
			c-6.6-199.9-33.4-396.6-91-588.6c-4.6-15.3-11.1-14.9-23.8-11.6c-158.6,42-319.8,67.9-483.7,75.9c-30.7,1.5-61.4,3.1-91.8,4.7
			c0,179.7,0,357.4,0,533.8C1781.7,1447.8,2010.7,1447.8,2240.8,1447.8z M758.3,1554.3c0,10.8-0.7,20.4,0.1,29.8
			c6,75.4,10.4,151,18.8,226.2c13.3,117.7,37.2,233.4,71.8,346.9c3.9,12.7,8.4,15.8,21.8,12.4c46.3-11.8,92.8-22.9,139.6-32.6
			c121.2-25,243.9-38.8,367.5-44.5c22.3-1,44.6-2.5,67-3.7c0-179.3,0-356.4,0-534.6C1216.5,1554.3,988.8,1554.3,758.3,1554.3z
			 M759.1,1447.4c229.3,0,457.4,0,685.7,0c0-178.5,0-355.6,0-534.1c-200.9-4-397.5-30.3-590-82.6
			C804,964.4,749.4,1316.7,759.1,1447.4z M2571.4,648.4c-104.3,62.2-212,111.6-321.7,146.7c22.8,109.3,49.4,215.8,66.2,323.9
			c16.8,108.3,23.8,218.2,35.3,328.7c169.4,0,342.4,0,516.5,0C2854.2,1149.2,2755.4,884.5,2571.4,648.4z M755.6,2204.6
			c-66.7-213-95.9-429.4-102-649.8c-174.7,0-347.7,0-522.3,0c15.6,297.9,113.6,562.8,298.1,797
			C533.1,2290.7,640.6,2242.2,755.6,2204.6z M754.6,799.3c-116.2-37-224.5-86.5-328.6-147.9c-183.2,235.2-280.7,500-294.5,796.8
			c175.6,0,348.1,0,522.3,0C659.3,1227.2,689.5,1011.6,754.6,799.3z M2570.1,2352.3c184.1-235.6,283.4-500,297.5-797.5
			c-174.8,0-347.8,0-521.8,0c-5.8,221.3-35.4,437.8-101.9,649.3C2357.9,2242.9,2466.2,2289.6,2570.1,2352.3z M2110.3,728.6
			c-1.7-6.7-2.5-12.6-4.7-17.8c-44.7-107-94.8-211.1-163.5-305.2c-69.5-95.1-150.5-177.5-258.2-229.7
			c-41.9-20.3-85.8-34.3-133.3-39.5c0,224.5,0,447.5,0,670.2C1633.8,820.3,2018.7,766.8,2110.3,728.6z M1550.8,2867.4
			c19.5-4.1,36.7-7.1,53.4-11.5c85.3-22.3,157.6-67.8,221.5-127.1c132.5-123,215.3-277.8,281.9-443c4.2-10.3,2.4-15.1-9.2-17.6
			c-24-5.1-47.6-12.1-71.5-17.5c-150-33.9-301.9-52-455.6-56.5c-6.8-0.2-13.6,0-20.5,0C1550.8,2419.6,1550.8,2642.2,1550.8,2867.4z
			 M1445.2,133.8c-30.7,8.5-58.5,14.4-85.1,23.8c-108.9,38.8-192.6,111.7-265,199.1c-68,82.2-120.8,174-165.5,270.4
			c-15.7,33.8-29,68.7-44,104.4c185.4,49,370.6,74.5,559.5,77.3C1445.2,583.3,1445.2,360.8,1445.2,133.8z M1445.1,2194.1
			c-189.4,4.3-374.1,29-555.2,76.6c0,4.8-0.5,6.9,0.1,8.6c2,6.1,4.1,12.3,6.5,18.2c40.4,97.5,86.2,192.3,146.7,279.3
			c69.9,100.4,151.9,188.2,262.5,245c43.6,22.4,89.5,37.9,139.4,43.8C1445.1,2641.7,1445.1,2419.8,1445.1,2194.1z M787.4,701.3
			c36.4-96.7,78.8-188.7,131.8-275.5c53.1-86.9,115.2-166.6,190.1-236.5c-239,70.8-442.5,198.3-614.3,381.6
			C588.4,625.4,684.6,667.3,787.4,701.3z M2500.5,569.1c-100.3-137.9-481.1-374.1-611.1-378.5c153.5,141,248.5,317.8,322.2,508.4
			C2313.3,665.3,2408.9,623.5,2500.5,569.1z M788.5,2304.3c-66,15-248.9,97.3-287.9,129.7c167.7,177.9,367.7,302.8,602,373.5
			c-72-69.8-132.7-148-184.8-233.2C865.7,2489,825.7,2398,788.5,2304.3z M2500.4,2432.3c-92.8-55.2-189.3-95.4-289.2-130
			c-71.6,190.5-166.8,363.8-313.9,505.2C2131.5,2736.5,2331.4,2611.7,2500.4,2432.3z"/>
	</g>
</g>
</svg>
